# xmcd
# Track frame offsets:
# 150
# 15717
# 28587
# 45712
# 56785
# 70320
# 85375
# 97975
# 111987
# 125037
# 137652
# 153202
# 169395
#
# Disc length: 2398 seconds
# Revision: 0
# Processed by: cddbd v1.4PL0 Copyright (c) Steve Scherf et al.
# Submitted via: VisiTrax 2.9.5.180 - For more info visit www.synapsa.com
#
DISCID=b4095c0d
DTITLE=Leon Payne - Long way back to the bandstand
DYEAR=2001
DGENRE=
TTITLE0=Las Cruces
TTITLE1=Rose
TTITLE2=No doubt
TTITLE3=(On her hand he placed a) Golden ring
TTITLE4=Fiddles in Austin
TTITLE5=Easy way out
TTITLE6=Eye to eye with a fool
TTITLE7=Lonely whistles blow
TTITLE8=Long way back to bandstand
TTITLE9=When she does me right, she does you wrong
TTITLE10=Write a new song
TTITLE11=Secret love
TTITLE12=Amazing grace
EXTD=
EXTT0=
EXTT1=
EXTT2=
EXTT3=
EXTT4=
EXTT5=
EXTT6=
EXTT7=
EXTT8=
EXTT9=
EXTT10=
EXTT11=
EXTT12=
PLAYORDER=
